<svg xmlns="http://www.w3.org/2000/svg" width="43.666" height="41.6" viewBox="0 0 43.666 41.6">
  <g id="round-wb_incandescent-24px" transform="translate(-1.985 -4.072)">
    <path id="Caminho_115" data-name="Caminho 115" d="M7.454,37.277a1.978,1.978,0,0,0,2.8,0l.774-.774a1.971,1.971,0,0,0,0-2.78l-.02-.02a1.978,1.978,0,0,0-2.8,0l-.774.774A2,2,0,0,0,7.454,37.277Zm15.369,6.374h.02a1.958,1.958,0,0,0,1.966-1.966V39.779a1.958,1.958,0,0,0-1.966-1.966h-.02a1.958,1.958,0,0,0-1.966,1.966v1.906A1.958,1.958,0,0,0,22.823,43.651ZM4.991,19.921H2.966A1.958,1.958,0,0,0,1,21.887v.02a1.958,1.958,0,0,0,1.966,1.966H4.971a1.958,1.958,0,0,0,1.966-1.966v-.02A1.929,1.929,0,0,0,4.991,19.921ZM28.8,11.6V4.036A1.992,1.992,0,0,0,26.814,2.05H18.871a1.992,1.992,0,0,0-1.986,1.986V11.6a11.914,11.914,0,1,0,11.914,0Zm9.929,10.286v.02a1.958,1.958,0,0,0,1.966,1.966H42.7a1.958,1.958,0,0,0,1.966-1.966v-.02A1.958,1.958,0,0,0,42.7,19.921H40.694A1.958,1.958,0,0,0,38.729,21.887ZM34.638,36.522l.774.774a1.98,1.98,0,0,0,2.8-2.8l-.774-.774a1.98,1.98,0,0,0-2.8,2.8Z" transform="translate(0.986 2.021)" fill="#fff"/>
  </g>
</svg>
