<svg width="43" height="48" viewBox="0 0 43 48" fill="none" xmlns="http://www.w3.org/2000/svg">
<path d="M2.112 47.68C1.55733 47.68 1.06667 47.488 0.64 47.104C0.213333 46.6773 0 46.1653 0 45.568C0 44.9707 0.213333 44.48 0.64 44.096C1.06667 43.6693 1.55733 43.456 2.112 43.456C2.70933 43.456 3.2 43.6693 3.584 44.096C4.01067 44.48 4.224 44.9707 4.224 45.568C4.224 46.1653 4.01067 46.6773 3.584 47.104C3.2 47.488 2.70933 47.68 2.112 47.68Z" fill="#CECECE"/>
<path d="M26.616 47.68C23.544 47.68 20.7707 46.976 18.296 45.568C15.864 44.1173 13.9227 42.1333 12.472 39.616C11.064 37.056 10.36 34.1333 10.36 30.848C10.36 27.52 11.064 24.6187 12.472 22.144C13.9227 19.6267 15.864 17.6427 18.296 16.192C20.7707 14.7413 23.544 14.016 26.616 14.016C29.6027 14.016 32.2907 14.72 34.68 16.128C37.0693 17.536 38.9467 19.4987 40.312 22.016C41.72 24.5333 42.424 27.4773 42.424 30.848C42.424 34.176 41.72 37.12 40.312 39.68C38.9467 42.24 37.0693 44.224 34.68 45.632C32.2907 46.9973 29.6027 47.68 26.616 47.68ZM26.68 45.76C29.4107 45.76 31.8427 45.1413 33.976 43.904C36.1093 42.624 37.7947 40.8533 39.032 38.592C40.2693 36.3307 40.888 33.7493 40.888 30.848C40.888 27.904 40.2693 25.3227 39.032 23.104C37.7947 20.8427 36.1093 19.0933 33.976 17.856C31.8427 16.6187 29.4107 16 26.68 16C23.992 16 21.5813 16.6187 19.448 17.856C17.3147 19.0933 15.608 20.8427 14.328 23.104C13.0907 25.3227 12.472 27.904 12.472 30.848C12.472 33.7493 13.0907 36.3307 14.328 38.592C15.608 40.8533 17.3147 42.624 19.448 43.904C21.5813 45.1413 23.992 45.76 26.68 45.76ZM40.952 47.488V35.84L41.528 30.784L40.888 25.728V0H43V47.488H40.952Z" fill="#CECECE"/>
</svg>
