<svg xmlns="http://www.w3.org/2000/svg" width="597.962" height="538.18" viewBox="0 0 597.962 538.18">
  <g id="Agrupar_308" data-name="Agrupar 308" transform="translate(476.287 597.566) rotate(-163)">
    <line id="Linha_54" data-name="Linha 54" x1="96.446" y1="87.678" transform="translate(7.306 271.802)" fill="none" stroke="#672543" stroke-width="1" opacity="0.22"/>
    <line id="Linha_55" data-name="Linha 55" x1="14.613" y1="143.207" transform="translate(7.306 271.802)" fill="none" stroke="#672543" stroke-width="1" opacity="0.22"/>
    <line id="Linha_56" data-name="Linha 56" y1="55.529" x2="81.833" transform="translate(21.919 359.48)" fill="none" stroke="#672543" stroke-width="1" opacity="0.22"/>
    <line id="Linha_57" data-name="Linha 57" x2="124.21" y2="71.604" transform="translate(21.919 415.009)" fill="none" stroke="#672543" stroke-width="1" opacity="0.22"/>
    <line id="Linha_58" data-name="Linha 58" x2="42.378" y2="127.133" transform="translate(103.752 359.48)" fill="none" stroke="#672543" stroke-width="1" opacity="0.22"/>
    <line id="Linha_59" data-name="Linha 59" x1="137.362" transform="translate(146.13 486.613)" fill="none" stroke="#672543" stroke-width="1" opacity="0.22"/>
    <line id="Linha_60" data-name="Linha 60" y1="65.758" x2="84.755" transform="translate(103.752 293.721)" fill="none" stroke="#672543" stroke-width="1" opacity="0.22"/>
    <line id="Linha_61" data-name="Linha 61" y1="101.282" x2="174.087" transform="translate(287.145 241.393)" fill="none" stroke="#672543" stroke-width="1" opacity="0.22"/>
    <line id="Linha_62" data-name="Linha 62" y1="116.904" x2="26.303" transform="translate(461.04 124.941)" fill="none" stroke="#672543" stroke-width="1" opacity="0.22"/>
    <line id="Linha_63" data-name="Linha 63" y1="144.669" x2="4.384" transform="translate(283.492 341.944)" fill="none" stroke="#672543" stroke-width="1" opacity="0.22"/>
    <line id="Linha_64" data-name="Linha 64" x1="173.129" y1="25.121" transform="translate(287.911 216.725)" fill="none" stroke="#672543" stroke-width="1" opacity="0.22"/>
    <line id="Linha_65" data-name="Linha 65" x1="101.596" y2="77.727" transform="translate(282.761 409.616)" fill="none" stroke="#672543" stroke-width="1" opacity="0.22"/>
    <line id="Linha_66" data-name="Linha 66" x1="97.212" y1="66.942" transform="translate(287.145 342.675)" fill="none" stroke="#672543" stroke-width="1" opacity="0.22"/>
    <line id="Linha_67" data-name="Linha 67" x1="179.74" y1="127.133" transform="translate(103.752 359.48)" fill="none" stroke="#672543" stroke-width="1" opacity="0.22"/>
    <line id="Linha_68" data-name="Linha 68" y1="17.536" x2="184.124" transform="translate(103.752 341.944)" fill="none" stroke="#672543" stroke-width="1" opacity="0.22"/>
    <ellipse id="Elipse_74" data-name="Elipse 74" cx="7.306" cy="7.306" rx="7.306" ry="7.306" transform="translate(276.185 479.306)" fill="#e1a1bd"/>
    <ellipse id="Elipse_75" data-name="Elipse 75" cx="7.306" cy="7.306" rx="7.306" ry="7.306" transform="translate(96.446 352.173)" fill="#e1a1bd"/>
    <line id="Linha_69" data-name="Linha 69" x1="4.384" y2="144.669" transform="translate(586.519 313.727) rotate(120)" fill="none" stroke="#672543" stroke-width="1" opacity="0.22"/>
    <line id="Linha_70" data-name="Linha 70" x2="179.74" y2="127.133" transform="translate(584.327 317.523) rotate(120)" fill="none" stroke="#672543" stroke-width="1" opacity="0.22"/>
    <line id="Linha_71" data-name="Linha 71" x1="184.124" y2="17.536" transform="translate(476.419 250.16) rotate(120)" fill="none" stroke="#672543" stroke-width="1" opacity="0.22"/>
    <line id="Linha_72" data-name="Linha 72" x2="100.83" y2="48.223" transform="translate(187.046 293.721)" fill="none" stroke="#672543" stroke-width="1" opacity="0.22"/>
    <line id="Linha_73" data-name="Linha 73" x1="18.074" y1="116.595" transform="translate(469.808 8.037)" fill="none" stroke="#672543" stroke-width="1" opacity="0.22"/>
    <circle id="Elipse_76" data-name="Elipse 76" cx="7.306" cy="7.306" r="7.306" transform="translate(594.308 314.849) rotate(120)" fill="#e1a1bd"/>
    <line id="Linha_74" data-name="Linha 74" x1="106.482" y2="40.464" transform="translate(364.787 8.037)" fill="none" stroke="#672543" stroke-width="1" opacity="0.22"/>
    <circle id="Elipse_77" data-name="Elipse 77" cx="7.306" cy="7.306" r="7.306" transform="translate(394.337 406.942) rotate(120)" fill="#e1a1bd"/>
    <circle id="Elipse_78" data-name="Elipse 78" cx="7.306" cy="7.306" r="7.306" transform="translate(471.213 238.718) rotate(120)" fill="#e1a1bd"/>
    <line id="Linha_75" data-name="Linha 75" x2="84.755" y2="8.768" transform="translate(106.675 140.285)" fill="none" stroke="#672543" stroke-width="1" opacity="0.22"/>
    <line id="Linha_76" data-name="Linha 76" x1="99.368" y2="131.517" transform="translate(7.306 140.285)" fill="none" stroke="#672543" stroke-width="1" opacity="0.22"/>
    <line id="Linha_77" data-name="Linha 77" x2="155.09" y2="40.464" transform="translate(209.696 8.037)" fill="none" stroke="#672543" stroke-width="1" opacity="0.22"/>
    <line id="Linha_78" data-name="Linha 78" y1="101.282" x2="174.087" transform="translate(190.699 48.501)" fill="none" stroke="#672543" stroke-width="1" opacity="0.22"/>
    <line id="Linha_79" data-name="Linha 79" y1="144.669" x2="4.384" transform="translate(187.046 149.052)" fill="none" stroke="#672543" stroke-width="1" opacity="0.22"/>
    <line id="Linha_80" data-name="Linha 80" x1="101.596" y2="77.727" transform="translate(186.316 216.725)" fill="none" stroke="#672543" stroke-width="1" opacity="0.22"/>
    <line id="Linha_81" data-name="Linha 81" x1="97.212" y1="66.942" transform="translate(190.7 149.783)" fill="none" stroke="#672543" stroke-width="1" opacity="0.22"/>
    <line id="Linha_82" data-name="Linha 82" x1="179.74" y1="21.919" transform="translate(7.306 271.802)" fill="none" stroke="#672543" stroke-width="1" opacity="0.22"/>
    <line id="Linha_83" data-name="Linha 83" x1="18.997" y2="141.746" transform="translate(190.699 8.037)" fill="none" stroke="#672543" stroke-width="1" opacity="0.22"/>
    <line id="Linha_84" data-name="Linha 84" y1="122.749" x2="184.124" transform="translate(7.306 149.052)" fill="none" stroke="#672543" stroke-width="1" opacity="0.22"/>
    <ellipse id="Elipse_79" data-name="Elipse 79" cx="7.306" cy="7.306" rx="7.306" ry="7.306" transform="translate(179.74 286.415)" fill="#e1a1bd"/>
    <ellipse id="Elipse_80" data-name="Elipse 80" cx="7.306" cy="7.306" rx="7.306" ry="7.306" transform="translate(0 264.495)" fill="#e1a1bd"/>
    <ellipse id="Elipse_81" data-name="Elipse 81" cx="7.306" cy="7.306" rx="7.306" ry="7.306" transform="translate(184.124 141.746)" fill="#e1a1bd"/>
    <line id="Linha_85" data-name="Linha 85" x1="1.461" y2="125.672" transform="translate(287.876 216.272)" fill="none" stroke="#672543" stroke-width="1" opacity="0.22"/>
    <line id="Linha_86" data-name="Linha 86" x1="4.384" y2="144.669" transform="translate(490.073 120.835) rotate(120)" fill="none" stroke="#672543" stroke-width="1" opacity="0.22"/>
    <line id="Linha_87" data-name="Linha 87" x2="179.74" y2="127.133" transform="translate(487.881 124.631) rotate(120)" fill="none" stroke="#672543" stroke-width="1" opacity="0.22"/>
    <ellipse id="Elipse_82" data-name="Elipse 82" cx="7.306" cy="7.306" rx="7.306" ry="7.306" transform="translate(280.569 334.637)" fill="#e1a1bd"/>
    <line id="Linha_88" data-name="Linha 88" x1="184.124" y2="17.536" transform="translate(379.973 57.269) rotate(120)" fill="none" stroke="#672543" stroke-width="1" opacity="0.22"/>
    <circle id="Elipse_83" data-name="Elipse 83" cx="7.306" cy="7.306" r="7.306" transform="translate(497.862 121.957) rotate(120)" fill="#e1a1bd"/>
    <circle id="Elipse_84" data-name="Elipse 84" cx="7.306" cy="7.306" r="7.306" transform="translate(297.892 214.05) rotate(120)" fill="#e1a1bd"/>
    <circle id="Elipse_85" data-name="Elipse 85" cx="7.306" cy="7.306" r="7.306" transform="translate(374.767 45.827) rotate(120)" fill="#e1a1bd"/>
    <ellipse id="Elipse_86" data-name="Elipse 86" cx="7.306" cy="7.306" rx="7.306" ry="7.306" transform="translate(14.613 409.164)" fill="#e1a1bd"/>
    <ellipse id="Elipse_87" data-name="Elipse 87" cx="7.306" cy="7.306" rx="7.306" ry="7.306" transform="translate(138.823 479.306)" fill="#e1a1bd"/>
    <ellipse id="Elipse_88" data-name="Elipse 88" cx="7.306" cy="7.306" rx="7.306" ry="7.306" transform="translate(463.232)" fill="#e1a1bd"/>
    <ellipse id="Elipse_89" data-name="Elipse 89" cx="7.306" cy="7.306" rx="7.306" ry="7.306" transform="translate(203.121)" fill="#e1a1bd"/>
    <ellipse id="Elipse_90" data-name="Elipse 90" cx="7.306" cy="7.306" rx="7.306" ry="7.306" transform="translate(99.368 132.978)" fill="#e1a1bd"/>
  </g>
</svg>
