<svg xmlns="http://www.w3.org/2000/svg" width="611.783" height="613.695" viewBox="0 0 611.783 613.695">
  <g id="Agrupar_307" data-name="Agrupar 307" transform="translate(504.099 653.527) rotate(-160)">
    <line id="Linha_54" data-name="Linha 54" y1="87.678" x2="96.446" transform="translate(490.555 271.802)" fill="none" stroke="#672543" stroke-width="1" opacity="0.22"/>
    <line id="Linha_55" data-name="Linha 55" y1="143.207" x2="14.613" transform="translate(572.388 271.802)" fill="none" stroke="#672543" stroke-width="1" opacity="0.22"/>
    <line id="Linha_56" data-name="Linha 56" x1="81.833" y1="55.529" transform="translate(490.555 359.48)" fill="none" stroke="#672543" stroke-width="1" opacity="0.22"/>
    <line id="Linha_57" data-name="Linha 57" x1="124.21" y2="71.604" transform="translate(448.178 415.009)" fill="none" stroke="#672543" stroke-width="1" opacity="0.22"/>
    <line id="Linha_58" data-name="Linha 58" x1="42.378" y2="127.133" transform="translate(448.178 359.48)" fill="none" stroke="#672543" stroke-width="1" opacity="0.22"/>
    <line id="Linha_59" data-name="Linha 59" x2="137.362" transform="translate(310.816 486.613)" fill="none" stroke="#672543" stroke-width="1" opacity="0.22"/>
    <line id="Linha_60" data-name="Linha 60" x1="84.755" y1="65.758" transform="translate(405.8 293.721)" fill="none" stroke="#672543" stroke-width="1" opacity="0.22"/>
    <line id="Linha_61" data-name="Linha 61" x1="174.087" y1="101.282" transform="translate(133.075 241.393)" fill="none" stroke="#672543" stroke-width="1" opacity="0.22"/>
    <line id="Linha_62" data-name="Linha 62" x1="26.303" y1="116.904" transform="translate(106.965 124.941)" fill="none" stroke="#672543" stroke-width="1" opacity="0.22"/>
    <line id="Linha_63" data-name="Linha 63" x1="4.384" y1="144.669" transform="translate(306.432 341.944)" fill="none" stroke="#672543" stroke-width="1" opacity="0.22"/>
    <line id="Linha_64" data-name="Linha 64" y1="25.121" x2="173.129" transform="translate(133.268 216.725)" fill="none" stroke="#672543" stroke-width="1" opacity="0.22"/>
    <line id="Linha_65" data-name="Linha 65" x2="101.596" y2="77.727" transform="translate(209.951 409.616)" fill="none" stroke="#672543" stroke-width="1" opacity="0.22"/>
    <line id="Linha_66" data-name="Linha 66" y1="66.942" x2="97.212" transform="translate(209.951 342.675)" fill="none" stroke="#672543" stroke-width="1" opacity="0.22"/>
    <line id="Linha_67" data-name="Linha 67" y1="127.133" x2="179.74" transform="translate(310.816 359.48)" fill="none" stroke="#672543" stroke-width="1" opacity="0.22"/>
    <line id="Linha_68" data-name="Linha 68" x1="184.124" y1="17.536" transform="translate(306.432 341.944)" fill="none" stroke="#672543" stroke-width="1" opacity="0.22"/>
    <ellipse id="Elipse_74" data-name="Elipse 74" cx="7.306" cy="7.306" rx="7.306" ry="7.306" transform="translate(303.509 479.306)" fill="#e1a1bd"/>
    <ellipse id="Elipse_75" data-name="Elipse 75" cx="7.306" cy="7.306" rx="7.306" ry="7.306" transform="translate(483.249 352.173)" fill="#e1a1bd"/>
    <line id="Linha_69" data-name="Linha 69" x1="4.384" y1="144.669" transform="translate(133.075 241.393) rotate(60)" fill="none" stroke="#672543" stroke-width="1" opacity="0.22"/>
    <line id="Linha_70" data-name="Linha 70" y1="127.133" x2="179.74" transform="translate(120.081 253.956) rotate(60)" fill="none" stroke="#672543" stroke-width="1" opacity="0.22"/>
    <line id="Linha_71" data-name="Linha 71" x1="184.124" y1="17.536" transform="translate(133.075 241.393) rotate(60)" fill="none" stroke="#672543" stroke-width="1" opacity="0.22"/>
    <line id="Linha_72" data-name="Linha 72" x1="100.83" y2="48.223" transform="translate(306.432 293.721)" fill="none" stroke="#672543" stroke-width="1" opacity="0.22"/>
    <line id="Linha_73" data-name="Linha 73" y1="116.595" x2="18.074" transform="translate(106.426 8.037)" fill="none" stroke="#672543" stroke-width="1" opacity="0.22"/>
    <ellipse id="Elipse_76" data-name="Elipse 76" cx="7.306" cy="7.306" rx="7.306" ry="7.306" transform="translate(12.655 307.542) rotate(60)" fill="#e1a1bd"/>
    <line id="Linha_74" data-name="Linha 74" x2="106.482" y2="40.464" transform="translate(123.039 8.037)" fill="none" stroke="#672543" stroke-width="1" opacity="0.22"/>
    <ellipse id="Elipse_77" data-name="Elipse 77" cx="7.306" cy="7.306" rx="7.306" ry="7.306" transform="translate(212.625 399.635) rotate(60)" fill="#e1a1bd"/>
    <ellipse id="Elipse_78" data-name="Elipse 78" cx="7.306" cy="7.306" rx="7.306" ry="7.306" transform="translate(135.75 231.412) rotate(60)" fill="#e1a1bd"/>
    <line id="Linha_75" data-name="Linha 75" x1="84.755" y2="8.768" transform="translate(402.878 140.285)" fill="none" stroke="#672543" stroke-width="1" opacity="0.22"/>
    <line id="Linha_76" data-name="Linha 76" x2="99.368" y2="131.517" transform="translate(487.633 140.285)" fill="none" stroke="#672543" stroke-width="1" opacity="0.22"/>
    <line id="Linha_77" data-name="Linha 77" x1="155.09" y2="40.464" transform="translate(229.521 8.037)" fill="none" stroke="#672543" stroke-width="1" opacity="0.22"/>
    <line id="Linha_78" data-name="Linha 78" x1="174.087" y1="101.282" transform="translate(229.521 48.501)" fill="none" stroke="#672543" stroke-width="1" opacity="0.22"/>
    <line id="Linha_79" data-name="Linha 79" x1="4.384" y1="144.669" transform="translate(402.878 149.052)" fill="none" stroke="#672543" stroke-width="1" opacity="0.22"/>
    <line id="Linha_80" data-name="Linha 80" x2="101.596" y2="77.727" transform="translate(306.396 216.725)" fill="none" stroke="#672543" stroke-width="1" opacity="0.22"/>
    <line id="Linha_81" data-name="Linha 81" y1="66.942" x2="97.212" transform="translate(306.396 149.783)" fill="none" stroke="#672543" stroke-width="1" opacity="0.22"/>
    <line id="Linha_82" data-name="Linha 82" y1="21.919" x2="179.74" transform="translate(407.261 271.802)" fill="none" stroke="#672543" stroke-width="1" opacity="0.22"/>
    <line id="Linha_83" data-name="Linha 83" x2="18.997" y2="141.746" transform="translate(384.611 8.037)" fill="none" stroke="#672543" stroke-width="1" opacity="0.22"/>
    <line id="Linha_84" data-name="Linha 84" x1="184.124" y1="122.749" transform="translate(402.878 149.052)" fill="none" stroke="#672543" stroke-width="1" opacity="0.22"/>
    <ellipse id="Elipse_79" data-name="Elipse 79" cx="7.306" cy="7.306" rx="7.306" ry="7.306" transform="translate(399.955 286.415)" fill="#e1a1bd"/>
    <ellipse id="Elipse_80" data-name="Elipse 80" cx="7.306" cy="7.306" rx="7.306" ry="7.306" transform="translate(579.695 264.495)" fill="#e1a1bd"/>
    <ellipse id="Elipse_81" data-name="Elipse 81" cx="7.306" cy="7.306" rx="7.306" ry="7.306" transform="translate(395.571 141.746)" fill="#e1a1bd"/>
    <line id="Linha_85" data-name="Linha 85" x2="1.461" y2="125.672" transform="translate(304.97 216.272)" fill="none" stroke="#672543" stroke-width="1" opacity="0.22"/>
    <line id="Linha_86" data-name="Linha 86" x1="4.384" y1="144.669" transform="translate(229.521 48.501) rotate(60)" fill="none" stroke="#672543" stroke-width="1" opacity="0.22"/>
    <line id="Linha_87" data-name="Linha 87" y1="127.133" x2="179.74" transform="translate(216.527 61.065) rotate(60)" fill="none" stroke="#672543" stroke-width="1" opacity="0.22"/>
    <ellipse id="Elipse_82" data-name="Elipse 82" cx="7.306" cy="7.306" rx="7.306" ry="7.306" transform="translate(299.125 334.637)" fill="#e1a1bd"/>
    <line id="Linha_88" data-name="Linha 88" x1="184.124" y1="17.536" transform="translate(229.521 48.501) rotate(60)" fill="none" stroke="#672543" stroke-width="1" opacity="0.22"/>
    <ellipse id="Elipse_83" data-name="Elipse 83" cx="7.306" cy="7.306" rx="7.306" ry="7.306" transform="translate(109.101 114.651) rotate(60)" fill="#e1a1bd"/>
    <ellipse id="Elipse_84" data-name="Elipse 84" cx="7.306" cy="7.306" rx="7.306" ry="7.306" transform="translate(309.071 206.744) rotate(60)" fill="#e1a1bd"/>
    <ellipse id="Elipse_85" data-name="Elipse 85" cx="7.306" cy="7.306" rx="7.306" ry="7.306" transform="translate(232.196 38.52) rotate(60)" fill="#e1a1bd"/>
    <ellipse id="Elipse_86" data-name="Elipse 86" cx="7.306" cy="7.306" rx="7.306" ry="7.306" transform="translate(565.082 409.164)" fill="#e1a1bd"/>
    <ellipse id="Elipse_87" data-name="Elipse 87" cx="7.306" cy="7.306" rx="7.306" ry="7.306" transform="translate(440.871 479.306)" fill="#e1a1bd"/>
    <ellipse id="Elipse_88" data-name="Elipse 88" cx="7.306" cy="7.306" rx="7.306" ry="7.306" transform="translate(116.463)" fill="#e1a1bd"/>
    <ellipse id="Elipse_89" data-name="Elipse 89" cx="7.306" cy="7.306" rx="7.306" ry="7.306" transform="translate(376.574)" fill="#e1a1bd"/>
    <ellipse id="Elipse_90" data-name="Elipse 90" cx="7.306" cy="7.306" rx="7.306" ry="7.306" transform="translate(480.326 132.978)" fill="#e1a1bd"/>
  </g>
</svg>
