<svg id="round-home-24px_2_" data-name="round-home-24px (2)" xmlns="http://www.w3.org/2000/svg" width="50" height="50" viewBox="0 0 50 50">
  <path id="Caminho_108" data-name="Caminho 108" d="M0,0H50V50H0Z" fill="none"/>
  <path id="Caminho_109" data-name="Caminho 109" d="M17.994,34.557V24.589h8.442v9.969a2.061,2.061,0,0,0,2.111,1.994h6.332a2.061,2.061,0,0,0,2.111-1.994V20.6h3.588a.983.983,0,0,0,.7-1.735L23.629,3.853a2.221,2.221,0,0,0-2.828,0L3.156,18.866a.986.986,0,0,0,.7,1.735H7.441V34.557a2.061,2.061,0,0,0,2.111,1.994h6.332A2.061,2.061,0,0,0,17.994,34.557Z" transform="translate(2.785 3.324)" fill="#fff"/>
</svg>
