<svg xmlns="http://www.w3.org/2000/svg" xmlns:xlink="http://www.w3.org/1999/xlink" width="307" height="307" viewBox="0 0 307 307">
  <defs>
    <linearGradient id="linear-gradient" y1="1" x2="1" gradientUnits="objectBoundingBox">
      <stop offset="0" stop-color="#c7ab6e"/>
      <stop offset="1" stop-color="#59431d"/>
    </linearGradient>
    <linearGradient id="linear-gradient-2" x1="-0.439" y1="1.44" x2="1.444" y2="-0.439" xlink:href="#linear-gradient"/>
  </defs>
  <g id="Jungle" transform="translate(-1340 -500)">
    <circle id="Elipse_35" data-name="Elipse 35" cx="126.5" cy="126.5" r="126.5" transform="translate(1367 527)" fill="#fff"/>
    <g id="Jungle-2" data-name="Jungle" transform="translate(1271 -756)">
      <path id="Subtração_1" data-name="Subtração 1" d="M153.5,307a154.619,154.619,0,0,1-30.936-3.119,152.637,152.637,0,0,1-54.888-23.1A153.944,153.944,0,0,1,12.063,213.25a152.736,152.736,0,0,1-8.944-28.814,155,155,0,0,1,0-61.871,152.655,152.655,0,0,1,23.1-54.888A153.95,153.95,0,0,1,93.751,12.063a152.72,152.72,0,0,1,28.814-8.944,154.985,154.985,0,0,1,61.871,0,152.656,152.656,0,0,1,54.888,23.1,153.95,153.95,0,0,1,55.614,67.535,152.726,152.726,0,0,1,8.944,28.814,154.992,154.992,0,0,1,0,61.871,152.654,152.654,0,0,1-23.1,54.888,153.952,153.952,0,0,1-67.536,55.614,152.723,152.723,0,0,1-28.813,8.944A154.619,154.619,0,0,1,153.5,307Zm0-277.206A123.706,123.706,0,1,0,277.208,153.5,123.847,123.847,0,0,0,153.5,29.794Z" transform="translate(69 1256)" fill="url(#linear-gradient)"/>
      <g id="Agrupar_290" data-name="Agrupar 290" transform="translate(140 1326)">
        <path id="Subtração_2" data-name="Subtração 2" d="M83,166A83.022,83.022,0,0,1,50.693,6.522a83.022,83.022,0,0,1,64.615,152.955A82.481,82.481,0,0,1,83,166ZM29.123,70.391c1.4,1.674,2.839,3.268,4.229,4.81,4.266,4.729,8.3,9.2,10.677,15.256,2.617,6.66,4.055,22.394,4.069,22.552l.029.02c.938.672,6.03,4.333,14.219,10.447a98.321,98.321,0,0,1,10.533,9.386c3.475,3.428,6.757,6.666,10.673,8.955C93.738,119.645,88.1,93.265,66.78,63.411c-1.1-1.536-2.161-3.115-3.287-4.787-3.934-5.838-8-11.875-13.564-16.15,1.019,4.962,3.561,9.787,6.019,14.453,1.419,2.692,2.885,5.475,4.026,8.231a84.959,84.959,0,0,1,6.6,34.024C56.547,83.474,44.3,74.056,29.123,70.391Zm108.19,0c-27.044,6.674-36.86,37.563-36.86,56.7,3.8-2.244,13.032-8.106,16.679-14.081,1.133-1.856,1.363-4.679,1.566-7.169a31.044,31.044,0,0,1,.422-3.576,67.581,67.581,0,0,1,4.74-15.3c2.04-4.372,5.483-7.985,8.813-11.479,1.562-1.639,3.177-3.334,4.641-5.1ZM116.578,41.312l-1.113,1.161c-1.035,1.212-2.087,2.436-3.1,3.619-6.68,7.769-13.587,15.8-18.968,24.3a113.707,113.707,0,0,0-5.531,11.341l.007.013c.445.814,4.383,8.056,5.524,11.534,1.488,4.538,2.741,8.484,2.753,8.523.033-.113,3.928-13.17,5.213-20.069,1.478-7.931,2.768-12.509,6.274-22.263a35.985,35.985,0,0,1,4.613-9.106A29.417,29.417,0,0,0,116.578,41.312ZM84.038,22.536a18.125,18.125,0,1,0,18.125,18.125A18.146,18.146,0,0,0,84.038,22.536Zm0,32.221a14.1,14.1,0,1,1,14.1-14.1A14.112,14.112,0,0,1,84.038,54.758Zm-.563-24.166a1.452,1.452,0,0,0-1.451,1.451v9.5a2,2,0,0,0,.987,1.732l7.35,4.41a1.493,1.493,0,0,0,.753.206,1.4,1.4,0,0,0,1.221-.69,1.474,1.474,0,0,0,.168-1.133,1.413,1.413,0,0,0-.671-.881l-6.787-4.027V32.042a1.452,1.452,0,0,0-1.45-1.451Z" fill="url(#linear-gradient-2)"/>
      </g>
    </g>
  </g>
</svg>
