<svg xmlns="http://www.w3.org/2000/svg" xmlns:xlink="http://www.w3.org/1999/xlink" width="91.319" height="91.32" viewBox="0 0 91.319 91.32">
  <defs>
    <linearGradient id="linear-gradient" x1="0.5" x2="0.5" y2="1" gradientUnits="objectBoundingBox">
      <stop offset="0" stop-color="#ab3369"/>
      <stop offset="1" stop-color="#ff655b"/>
    </linearGradient>
  </defs>
  <g id="at" opacity="0.5">
    <path id="Caminho_90" data-name="Caminho 90" d="M50.942,2.122A45.629,45.629,0,0,0,2.122,50.942C3.766,75.1,24.865,93.323,49.07,93.323H65.922a4.567,4.567,0,1,0,0-9.134H49.161c-17.035,0-32.654-11.052-36.9-27.539-6.8-26.488,17.857-51.2,44.345-44.345,16.532,4.2,27.584,19.821,27.584,36.855v5.024c0,3.608-3.243,7.17-6.85,7.17s-6.85-3.562-6.85-7.17V48.476c0-11.463-8.129-21.784-19.455-23.383A22.858,22.858,0,1,0,63.821,63.821a16.883,16.883,0,0,0,19.638,5.526c6.12-2.42,9.865-8.677,9.865-15.254V49.115c0-24.25-18.222-45.35-42.381-46.994ZM47.654,61.355a13.7,13.7,0,1,1,13.7-13.7A13.682,13.682,0,0,1,47.654,61.355Z" transform="translate(-2.004 -2.004)" fill="url(#linear-gradient)"/>
  </g>
</svg>
