<svg xmlns="http://www.w3.org/2000/svg" xmlns:xlink="http://www.w3.org/1999/xlink" width="82.669" height="82.67" viewBox="0 0 82.669 82.67">
  <defs>
    <linearGradient id="linear-gradient" x1="0.5" x2="0.5" y2="1" gradientUnits="objectBoundingBox">
      <stop offset="0" stop-color="#ab3369"/>
      <stop offset="1" stop-color="#ff655b"/>
    </linearGradient>
  </defs>
  <g id="color" transform="translate(-20.53 -20.529)" opacity="0.5">
    <path id="Caminho_103" data-name="Caminho 103" d="M44.334,3a41.334,41.334,0,0,0,0,82.669,6.893,6.893,0,0,0,5.1-11.528,6.863,6.863,0,0,1,5.144-11.436h8.129A22.972,22.972,0,0,0,85.669,39.742C85.669,19.442,67.16,3,44.334,3ZM19.075,44.334a6.889,6.889,0,1,1,6.889-6.889A6.88,6.88,0,0,1,19.075,44.334ZM32.853,25.964a6.889,6.889,0,1,1,6.889-6.889A6.88,6.88,0,0,1,32.853,25.964Zm22.964,0a6.889,6.889,0,1,1,6.889-6.889A6.88,6.88,0,0,1,55.816,25.964ZM69.594,44.334a6.889,6.889,0,1,1,6.889-6.889A6.88,6.88,0,0,1,69.594,44.334Z" transform="translate(17.53 17.53)" fill="url(#linear-gradient)"/>
  </g>
</svg>
