<svg xmlns="http://www.w3.org/2000/svg" xmlns:xlink="http://www.w3.org/1999/xlink" width="103.495" height="103.496" viewBox="0 0 103.495 103.496">
  <defs>
    <linearGradient id="linear-gradient" x1="0.5" x2="0.5" y2="1" gradientUnits="objectBoundingBox">
      <stop offset="0" stop-color="#ab3369"/>
      <stop offset="1" stop-color="#ff655b"/>
    </linearGradient>
  </defs>
  <g id="phone" opacity="0.5">
    <path id="Caminho_88" data-name="Caminho 88" d="M96.381,73.587,81.747,71.916A11.469,11.469,0,0,0,72.3,75.2L61.7,85.8A86.681,86.681,0,0,1,23.731,47.833L34.389,37.175a11.469,11.469,0,0,0,3.284-9.449L36,13.208A11.531,11.531,0,0,0,24.537,3.01H14.57A11.434,11.434,0,0,0,3.047,14.936,97.9,97.9,0,0,0,94.6,106.484a11.434,11.434,0,0,0,11.926-11.523V84.994A11.419,11.419,0,0,0,96.381,73.587Z" transform="translate(-3.026 -3.01)" fill="url(#linear-gradient)"/>
  </g>
</svg>
